<?xml version="1.0" encoding="UTF-8"?>
<svg version="1.1" xmlns="http://www.w3.org/2000/svg" width="96" height="96">
<path d="M0 0 C31.68 0 63.36 0 96 0 C96 31.68 96 63.36 96 96 C64.32 96 32.64 96 0 96 C0 64.32 0 32.64 0 0 Z " fill="#E0EFFC" transform="translate(0,0)"/>
<path d="M0 0 C5.61 0 11.22 0 17 0 C17 0.66 17 1.32 17 2 C17.99 2 18.98 2 20 2 C20 2.99 20 3.98 20 5 C20.66 5 21.32 5 22 5 C22 4.01 22 3.02 22 2 C23.65 2 25.3 2 27 2 C27 2.99 27 3.98 27 5 C27.66 5 28.32 5 29 5 C29 5.66 29 6.32 29 7 C29.66 7 30.32 7 31 7 C31 7.99 31 8.98 31 10 C30.34 10 29.68 10 29 10 C29 10.66 29 11.32 29 12 C29.66 12 30.32 12 31 12 C31 12.99 31 13.98 31 15 C31.66 15 32.32 15 33 15 C32.67 19.62 32.34 24.24 32 29 C31.01 29 30.02 29 29 29 C29 31.64 29 34.28 29 37 C28.01 37 27.02 37 26 37 C26 35.35 26 33.7 26 32 C22.04 32 18.08 32 14 32 C14 33.65 14 35.3 14 37 C13.01 37 12.02 37 11 37 C11 37.66 11 38.32 11 39 C8.69 39 6.38 39 4 39 C4 38.34 4 37.68 4 37 C5.65 37 7.3 37 9 37 C9 35.35 9 33.7 9 32 C6.36 31.67 3.72 31.34 1 31 C2.32 30.67 3.64 30.34 5 30 C5 29.01 5 28.02 5 27 C7.31 27 9.62 27 12 27 C12 27.66 12 28.32 12 29 C14.64 29 17.28 29 20 29 C20 28.34 20 27.68 20 27 C19.01 27 18.02 27 17 27 C17 26.34 17 25.68 17 25 C16.34 25 15.68 25 15 25 C15 24.01 15 23.02 15 22 C14.34 22 13.68 22 13 22 C13 21.34 13 20.68 13 20 C11.35 20 9.7 20 8 20 C8 20.66 8 21.32 8 22 C7.01 22 6.02 22 5 22 C5 22.99 5 23.98 5 25 C4.34 25 3.68 25 3 25 C3 25.66 3 26.32 3 27 C1.02 27 -0.96 27 -3 27 C-3 27.99 -3 28.98 -3 30 C-5.31 30 -7.62 30 -10 30 C-10 28.35 -10 26.7 -10 25 C-10.66 25.33 -11.32 25.66 -12 26 C-12.33 26.99 -12.66 27.98 -13 29 C-13.66 29 -14.32 29 -15 29 C-15 28.34 -15 27.68 -15 27 C-15.66 27 -16.32 27 -17 27 C-17.14285714 18.42857143 -17.14285714 18.42857143 -16 15 C-15.01 15 -14.02 15 -13 15 C-13 13.35 -13 11.7 -13 10 C-12.01 10 -11.02 10 -10 10 C-10 9.01 -10 8.02 -10 7 C-8.35 7 -6.7 7 -5 7 C-5 6.34 -5 5.68 -5 5 C-4.34 5 -3.68 5 -3 5 C-2.67 4.01 -2.34 3.02 -2 2 C-1.34 2 -0.68 2 0 2 C0 1.34 0 0.68 0 0 Z " fill="#413636" transform="translate(40,21)"/>
<path d="M0 0 C1.65 0 3.3 0 5 0 C5 0.66 5 1.32 5 2 C5.66 2 6.32 2 7 2 C7 2.99 7 3.98 7 5 C7.66 5 8.32 5 9 5 C9 5.66 9 6.32 9 7 C9.99 7 10.98 7 12 7 C12 7.66 12 8.32 12 9 C9.36 9 6.72 9 4 9 C4 8.34 4 7.68 4 7 C1.69 7 -0.62 7 -3 7 C-3.33 8.32 -3.66 9.64 -4 11 C-1.525 11.495 -1.525 11.495 1 12 C1 13.65 1 15.3 1 17 C-1.31 17 -3.62 17 -6 17 C-6 15.35 -6 13.7 -6 12 C-6.99 12 -7.98 12 -9 12 C-9 13.65 -9 15.3 -9 17 C-9.99 17 -10.98 17 -12 17 C-12 18.65 -12 20.3 -12 22 C-10.35 22 -8.7 22 -7 22 C-7 22.66 -7 23.32 -7 24 C-5.35 24 -3.7 24 -2 24 C-2 24.99 -2 25.98 -2 27 C-2.99 27 -3.98 27 -5 27 C-5 27.66 -5 28.32 -5 29 C-5.99 29 -6.98 29 -8 29 C-8 30.65 -8 32.3 -8 34 C-9.65 34 -11.3 34 -13 34 C-13 33.34 -13 32.68 -13 32 C-13.66 32 -14.32 32 -15 32 C-15 30.35 -15 28.7 -15 27 C-15.66 27 -16.32 27 -17 27 C-17 25.35 -17 23.7 -17 22 C-17.66 22 -18.32 22 -19 22 C-19 20.35 -19 18.7 -19 17 C-19.66 17 -20.32 17 -21 17 C-21.04254356 15.00045254 -21.04080783 12.99958364 -21 11 C-20 10 -20 10 -17.93359375 9.90234375 C-16.69802734 9.91974609 -16.69802734 9.91974609 -15.4375 9.9375 C-14.61121094 9.94652344 -13.78492188 9.95554687 -12.93359375 9.96484375 C-12.29550781 9.97644531 -11.65742187 9.98804688 -11 10 C-11 9.01 -11 8.02 -11 7 C-9.02 7 -7.04 7 -5 7 C-5 6.34 -5 5.68 -5 5 C-4.34 5 -3.68 5 -3 5 C-3 4.01 -3 3.02 -3 2 C-2.01 2 -1.02 2 0 2 C0 1.34 0 0.68 0 0 Z " fill="#6C757F" transform="translate(48,41)"/>
<path d="M0 0 C0.99 0 1.98 0 3 0 C3 1.65 3 3.3 3 5 C3.66 5 4.32 5 5 5 C5 5.66 5 6.32 5 7 C7.31 7 9.62 7 12 7 C12 6.34 12 5.68 12 5 C12.99 5 13.98 5 15 5 C15 3.35 15 1.7 15 0 C18.96 0 22.92 0 27 0 C27 2.31 27 4.62 27 7 C26.01 7 25.02 7 24 7 C24 7.99 24 8.98 24 10 C23.01 10 22.02 10 21 10 C21 11.65 21 13.3 21 15 C20.34 15 19.68 15 19 15 C19 15.66 19 16.32 19 17 C18.01 17 17.02 17 16 17 C16 17.99 16 18.98 16 20 C15.01 20 14.02 20 13 20 C13 20.66 13 21.32 13 22 C9.04 22 5.08 22 1 22 C1 20.35 1 18.7 1 17 C1.99 17 2.98 17 4 17 C4 16.34 4 15.68 4 15 C4.99 15 5.98 15 7 15 C7 14.01 7 13.02 7 12 C5.35 12 3.7 12 2 12 C2 11.34 2 10.68 2 10 C0.35 10 -1.3 10 -3 10 C-3 8.35 -3 6.7 -3 5 C-2.01 5 -1.02 5 0 5 C0 3.35 0 1.7 0 0 Z " fill="#FBD2BF" transform="translate(39,53)"/>
<path d="M0 0 C5.61 0 11.22 0 17 0 C16.67 0.66 16.34 1.32 16 2 C14.02 2 12.04 2 10 2 C10 2.99 10 3.98 10 5 C9.01 5 8.02 5 7 5 C7 5.66 7 6.32 7 7 C6.01 7 5.02 7 4 7 C4 7.99 4 8.98 4 10 C3.34 10 2.68 10 2 10 C2 10.66 2 11.32 2 12 C1.01 12 0.02 12 -1 12 C-1 12.99 -1 13.98 -1 15 C-2.65 15 -4.3 15 -6 15 C-6.33 16.32 -6.66 17.64 -7 19 C-7.66 19 -8.32 19 -9 19 C-9 19.99 -9 20.98 -9 22 C-8.34 22 -7.68 22 -7 22 C-7 21.34 -7 20.68 -7 20 C-6.01 20 -5.02 20 -4 20 C-4 19.01 -4 18.02 -4 17 C-2.35 17 -0.7 17 1 17 C1 17.99 1 18.98 1 20 C0.01 20 -0.98 20 -2 20 C-2 20.66 -2 21.32 -2 22 C-2.78375 22.28875 -3.5675 22.5775 -4.375 22.875 C-7.09671632 23.84912254 -7.09671632 23.84912254 -9 26 C-9 25.34 -9 24.68 -9 24 C-9.99 24 -10.98 24 -12 24 C-12.33 25.65 -12.66 27.3 -13 29 C-13.66 29 -14.32 29 -15 29 C-15 28.34 -15 27.68 -15 27 C-15.66 27 -16.32 27 -17 27 C-17.14285714 18.42857143 -17.14285714 18.42857143 -16 15 C-15.01 15 -14.02 15 -13 15 C-13 13.35 -13 11.7 -13 10 C-12.01 10 -11.02 10 -10 10 C-10 9.01 -10 8.02 -10 7 C-8.35 7 -6.7 7 -5 7 C-5 6.34 -5 5.68 -5 5 C-4.34 5 -3.68 5 -3 5 C-2.67 4.01 -2.34 3.02 -2 2 C-1.34 2 -0.68 2 0 2 C0 1.34 0 0.68 0 0 Z " fill="#1C1212" transform="translate(40,21)"/>
<path d="M0 0 C7.26 0 14.52 0 22 0 C22 0.99 22 1.98 22 3 C25.3 3 28.6 3 32 3 C32 3.66 32 4.32 32 5 C32.66 5 33.32 5 34 5 C34 5.99 34 6.98 34 8 C34.66 8 35.32 8 36 8 C36 10.31 36 12.62 36 15 C36.66 15 37.32 15 38 15 C37.88655624 17.1464753 37.75893655 19.29220592 37.625 21.4375 C37.55539063 22.63246094 37.48578125 23.82742187 37.4140625 25.05859375 C37.27742188 26.02925781 37.14078125 26.99992187 37 28 C36.01 28.495 36.01 28.495 35 29 C35 25.37 35 21.74 35 18 C34.34 18 33.68 18 33 18 C33 17.01 33 16.02 33 15 C32.34 15 31.68 15 31 15 C31 14.34 31 13.68 31 13 C31.66 13 32.32 13 33 13 C33 12.01 33 11.02 33 10 C32.34 10 31.68 10 31 10 C31 9.34 31 8.68 31 8 C30.34 8 29.68 8 29 8 C29 7.01 29 6.02 29 5 C27.35 5 25.7 5 24 5 C24 5.99 24 6.98 24 8 C23.34 8 22.68 8 22 8 C22 7.01 22 6.02 22 5 C21.01 5 20.02 5 19 5 C19 4.34 19 3.68 19 3 C13.39 3 7.78 3 2 3 C2 3.66 2 4.32 2 5 C0.625 6.625 0.625 6.625 -1 8 C-1.66 8 -2.32 8 -3 8 C-3 8.66 -3 9.32 -3 10 C-4.65 10 -6.3 10 -8 10 C-8 10.99 -8 11.98 -8 13 C-8.99 13 -9.98 13 -11 13 C-11.33 13.66 -11.66 14.32 -12 15 C-12.66 15 -13.32 15 -14 15 C-13.67 13.35 -13.34 11.7 -13 10 C-12.34 10 -11.68 10 -11 10 C-11 9.34 -11 8.68 -11 8 C-9.35 8 -7.7 8 -6 8 C-5.67 7.01 -5.34 6.02 -5 5 C-4.34 5 -3.68 5 -3 5 C-3 4.34 -3 3.68 -3 3 C-2.01 3 -1.02 3 0 3 C0 2.01 0 1.02 0 0 Z " fill="#F7F8F9" transform="translate(38,18)"/>
<path d="M0 0 C1.65 0 3.3 0 5 0 C5 0.99 5 1.98 5 3 C5.66 3 6.32 3 7 3 C7 3.66 7 4.32 7 5 C7.66 5 8.32 5 9 5 C9 5.99 9 6.98 9 8 C8.34 8 7.68 8 7 8 C7 8.66 7 9.32 7 10 C7.66 10 8.32 10 9 10 C9 10.99 9 11.98 9 13 C9.66 13 10.32 13 11 13 C10.67 17.62 10.34 22.24 10 27 C9.01 27 8.02 27 7 27 C7 29.64 7 32.28 7 35 C6.01 35 5.02 35 4 35 C4.33 31.04 4.66 27.08 5 23 C4.34 23 3.68 23 3 23 C3 21.35 3 19.7 3 18 C2.34 18 1.68 18 1 18 C1 17.01 1 16.02 1 15 C1.99 15 2.98 15 4 15 C4 14.34 4 13.68 4 13 C3.34 13 2.68 13 2 13 C2 11.35 2 9.7 2 8 C1.01 8 0.02 8 -1 8 C-1 7.01 -1 6.02 -1 5 C-1.66 4.67 -2.32 4.34 -3 4 C-2.01 4 -1.02 4 0 4 C0 2.68 0 1.36 0 0 Z " fill="#625352" transform="translate(62,23)"/>
<path d="M0 0 C0.33 0 0.66 0 1 0 C1 2.31 1 4.62 1 7 C0.01 7 -0.98 7 -2 7 C-2 7.99 -2 8.98 -2 10 C-2.66 10 -3.32 10 -4 10 C-4 10.66 -4 11.32 -4 12 C-4.99 12 -5.98 12 -7 12 C-7 13.65 -7 15.3 -7 17 C-7.99 17 -8.98 17 -10 17 C-10 17.99 -10 18.98 -10 20 C-10.99 20 -11.98 20 -13 20 C-13 20.66 -13 21.32 -13 22 C-13.99 22 -14.98 22 -16 22 C-16 22.99 -16 23.98 -16 25 C-22.27 25 -28.54 25 -35 25 C-35 24.01 -35 23.02 -35 22 C-29.39 22 -23.78 22 -18 22 C-18 21.34 -18 20.68 -18 20 C-17.01 20 -16.02 20 -15 20 C-15 19.01 -15 18.02 -15 17 C-14.01 17 -13.02 17 -12 17 C-12 16.34 -12 15.68 -12 15 C-11.34 15 -10.68 15 -10 15 C-10 13.35 -10 11.7 -10 10 C-9.01 10 -8.02 10 -7 10 C-7 9.01 -7 8.02 -7 7 C-6.01 7 -5.02 7 -4 7 C-4 6.34 -4 5.68 -4 5 C-3.01 5 -2.02 5 -1 5 C-0.67 3.35 -0.34 1.7 0 0 Z " fill="#FCFCFC" transform="translate(70,53)"/>
<path d="M0 0 C2.31 0 4.62 0 7 0 C7 0.99 7 1.98 7 3 C8.65 3 10.3 3 12 3 C12 3.66 12 4.32 12 5 C13.65 5 15.3 5 17 5 C17 5.99 17 6.98 17 8 C16.01 8 15.02 8 14 8 C14 8.66 14 9.32 14 10 C13.01 10 12.02 10 11 10 C11 11.65 11 13.3 11 15 C9.35 15 7.7 15 6 15 C6 14.34 6 13.68 6 13 C5.34 13 4.68 13 4 13 C4 11.35 4 9.7 4 8 C3.34 8 2.68 8 2 8 C2 6.35 2 4.7 2 3 C1.34 3 0.68 3 0 3 C0 2.01 0 1.02 0 0 Z " fill="#F8C4AE" transform="translate(29,60)"/>
<path d="M0 0 C2.31 0 4.62 0 7 0 C7 0.66 7 1.32 7 2 C10.96 2 14.92 2 19 2 C19 2.99 19 3.98 19 5 C15.7 5 12.4 5 9 5 C9 6.65 9 8.3 9 10 C8.01 10 7.02 10 6 10 C6 10.66 6 11.32 6 12 C3.69 12 1.38 12 -1 12 C-1 11.34 -1 10.68 -1 10 C0.65 10 2.3 10 4 10 C4 8.35 4 6.7 4 5 C1.36 4.67 -1.28 4.34 -4 4 C-2.68 3.67 -1.36 3.34 0 3 C0 2.01 0 1.02 0 0 Z " fill="#365489" transform="translate(45,48)"/>
<path d="M0 0 C1.65 0 3.3 0 5 0 C5 0.66 5 1.32 5 2 C5.66 2 6.32 2 7 2 C7 2.99 7 3.98 7 5 C7.66 5 8.32 5 9 5 C9 5.66 9 6.32 9 7 C9.99 7 10.98 7 12 7 C12 7.66 12 8.32 12 9 C9.36 9 6.72 9 4 9 C4 8.34 4 7.68 4 7 C1.69 7 -0.62 7 -3 7 C-3 7.66 -3 8.32 -3 9 C-5.31 9 -7.62 9 -10 9 C-10 8.34 -10 7.68 -10 7 C-8.35 7 -6.7 7 -5 7 C-5 6.34 -5 5.68 -5 5 C-4.34 5 -3.68 5 -3 5 C-3 4.01 -3 3.02 -3 2 C-2.01 2 -1.02 2 0 2 C0 1.34 0 0.68 0 0 Z " fill="#FAD8C2" transform="translate(48,41)"/>
<path d="M0 0 C0.33 0.66 0.66 1.32 1 2 C3.31 2 5.62 2 8 2 C7.67 2.66 7.34 3.32 7 4 C8.65 4.33 10.3 4.66 12 5 C12 6.65 12 8.3 12 10 C9.69 10 7.38 10 5 10 C5 8.35 5 6.7 5 5 C4.01 5 3.02 5 2 5 C2 6.65 2 8.3 2 10 C1.34 10 0.68 10 0 10 C0 6.7 0 3.4 0 0 Z " fill="#566C96" transform="translate(37,48)"/>
<path d="M0 0 C1.98 0.495 1.98 0.495 4 1 C4 2.65 4 4.3 4 6 C4.66 6 5.32 6 6 6 C6 7.65 6 9.3 6 11 C6.66 11 7.32 11 8 11 C8 12.65 8 14.3 8 16 C8.66 16 9.32 16 10 16 C10 16.66 10 17.32 10 18 C9.01 18 8.02 18 7 18 C7 17.34 7 16.68 7 16 C6.34 16 5.68 16 5 16 C5 14.35 5 12.7 5 11 C4.34 11 3.68 11 3 11 C3 9.35 3 7.7 3 6 C2.34 6 1.68 6 1 6 C1 5.01 1 4.02 1 3 C0.34 3 -0.32 3 -1 3 C-0.67 2.01 -0.34 1.02 0 0 Z " fill="#FAFAFB" transform="translate(25,57)"/>
<path d="M0 0 C0.66 0 1.32 0 2 0 C2 1.65 2 3.3 2 5 C1.01 5.495 1.01 5.495 0 6 C-0.65772428 9.02934491 -0.65772428 9.02934491 -1 12 C-1.99 12 -2.98 12 -4 12 C-4 10.68 -4 9.36 -4 8 C-4.66 7.67 -5.32 7.34 -6 7 C-6 6.34 -6 5.68 -6 5 C-6.66 5 -7.32 5 -8 5 C-7.67 3.68 -7.34 2.36 -7 1 C-5.02 1.495 -5.02 1.495 -3 2 C-3 2.66 -3 3.32 -3 4 C-2.34 4 -1.68 4 -1 4 C-0.67 2.68 -0.34 1.36 0 0 Z " fill="#FAFBFD" transform="translate(28,46)"/>
<path d="M0 0 C1.65 0 3.3 0 5 0 C5 0.99 5 1.98 5 3 C5.66 3 6.32 3 7 3 C7 3.66 7 4.32 7 5 C7.66 5 8.32 5 9 5 C9 5.99 9 6.98 9 8 C7.35 8 5.7 8 4 8 C4 7.01 4 6.02 4 5 C3.34 5 2.68 5 2 5 C2 5.99 2 6.98 2 8 C1.01 8 0.02 8 -1 8 C-1 7.01 -1 6.02 -1 5 C-1.66 4.67 -2.32 4.34 -3 4 C-2.01 4 -1.02 4 0 4 C0 2.68 0 1.36 0 0 Z " fill="#675858" transform="translate(62,23)"/>
<path d="M0 0 C2.31 0.66 4.62 1.32 7 2 C7 2.66 7 3.32 7 4 C7.66 4.33 8.32 4.66 9 5 C7.35 5 5.7 5 4 5 C4 5.66 4 6.32 4 7 C3.01 7 2.02 7 1 7 C1 7.99 1 8.98 1 10 C0.34 10 -0.32 10 -1 10 C-1 8.68 -1 7.36 -1 6 C-1.66 6 -2.32 6 -3 6 C-3 4.68 -3 3.36 -3 2 C-2.34 2 -1.68 2 -1 2 C-0.67 1.34 -0.34 0.68 0 0 Z " fill="#594B4A" transform="translate(44,36)"/>
<path d="M0 0 C0.99 0 1.98 0 3 0 C2.8125 2.375 2.8125 2.375 2 5 C-0.5625 6.3125 -0.5625 6.3125 -3 7 C-3 7.66 -3 8.32 -3 9 C-5.31 9 -7.62 9 -10 9 C-10 8.34 -10 7.68 -10 7 C-8.35 7 -6.7 7 -5 7 C-5 6.34 -5 5.68 -5 5 C-4.34 5 -3.68 5 -3 5 C-3 4.01 -3 3.02 -3 2 C-2.01 2 -1.02 2 0 2 C0 1.34 0 0.68 0 0 Z " fill="#F6BCA1" transform="translate(48,41)"/>
<path d="M0 0 C1.65 0 3.3 0 5 0 C5 0.66 5 1.32 5 2 C6.65 2 8.3 2 10 2 C10 2.99 10 3.98 10 5 C9.01 5 8.02 5 7 5 C7 5.66 7 6.32 7 7 C6.01 7 5.02 7 4 7 C4 6.34 4 5.68 4 5 C3.34 5 2.68 5 2 5 C2 4.01 2 3.02 2 2 C1.34 2 0.68 2 0 2 C0 1.34 0 0.68 0 0 Z " fill="#EB9D86" transform="translate(36,63)"/>
<path d="M0 0 C0.33 0 0.66 0 1 0 C1 1.65 1 3.3 1 5 C1.66 5 2.32 5 3 5 C3 5.99 3 6.98 3 8 C0.69 8 -1.62 8 -4 8 C-4 6.35 -4 4.7 -4 3 C-4.66 2.67 -5.32 2.34 -6 2 C-4.7934375 1.7834375 -4.7934375 1.7834375 -3.5625 1.5625 C-1.07896294 1.25864751 -1.07896294 1.25864751 0 0 Z " fill="#313032" transform="translate(34,43)"/>
<path d="M0 0 C2.31 0 4.62 0 7 0 C7 0.99 7 1.98 7 3 C6.34 3 5.68 3 5 3 C4.67 4.32 4.34 5.64 4 7 C3.34 7 2.68 7 2 7 C2 5.68 2 4.36 2 3 C1.34 3 0.68 3 0 3 C0 2.01 0 1.02 0 0 Z " fill="#EBA98F" transform="translate(29,60)"/>
<path d="M0 0 C0.66 0 1.32 0 2 0 C2 0.66 2 1.32 2 2 C2.99 2 3.98 2 5 2 C5 2.66 5 3.32 5 4 C5.66 4 6.32 4 7 4 C7 4.99 7 5.98 7 7 C5.35 7 3.7 7 2 7 C2 6.34 2 5.68 2 5 C1.34 5 0.68 5 0 5 C0 3.35 0 1.7 0 0 Z " fill="#F3AC8F" transform="translate(33,68)"/>
<path d="M0 0 C1.5625 1.5625 1.5625 1.5625 3 4 C2.6875 7.75 2.6875 7.75 2 11 C0.35 11.33 -1.3 11.66 -3 12 C-3 10.68 -3 9.36 -3 8 C-2.01 8 -1.02 8 0 8 C0 5.36 0 2.72 0 0 Z " fill="#ECEBEC" transform="translate(72,42)"/>
<path d="M0 0 C2.28062828 3.42094242 2.21925007 4.68187222 2.125 8.6875 C2.10695313 9.68136719 2.08890625 10.67523438 2.0703125 11.69921875 C2.03550781 12.83810547 2.03550781 12.83810547 2 14 C1.01 14 0.02 14 -1 14 C-0.67 9.38 -0.34 4.76 0 0 Z " fill="#F8FAFC" transform="translate(21,34)"/>
<path d="M0 0 C0 0.99 0 1.98 0 3 C-1.62463842 3.05395478 -3.24978541 3.09277195 -4.875 3.125 C-5.77992187 3.14820313 -6.68484375 3.17140625 -7.6171875 3.1953125 C-10 3 -10 3 -12 1 C-7.95858806 0.36605303 -4.0934693 -0.12404452 0 0 Z " fill="#1252C3" transform="translate(64,50)"/>
<path d="M0 0 C1.65 0 3.3 0 5 0 C5 0.99 5 1.98 5 3 C4.01 3 3.02 3 2 3 C2 3.66 2 4.32 2 5 C0.35 5.33 -1.3 5.66 -3 6 C-3 5.01 -3 4.02 -3 3 C-2.01 3 -1.02 3 0 3 C0 2.01 0 1.02 0 0 Z " fill="#1D1D1D" transform="translate(36,38)"/>
<path d="M0 0 C0.66 0 1.32 0 2 0 C1.67 2.31 1.34 4.62 1 7 C-1.31 7 -3.62 7 -6 7 C-6 6.34 -6 5.68 -6 5 C-4.35 4.67 -2.7 4.34 -1 4 C-0.67 2.68 -0.34 1.36 0 0 Z " fill="#4E5B6C" transform="translate(35,53)"/>
<path d="M0 0 C1.65 0 3.3 0 5 0 C5 1.65 5 3.3 5 5 C3.35 5 1.7 5 0 5 C0 3.35 0 1.7 0 0 Z " fill="#EFCBBC" transform="translate(29,53)"/>
<path d="M0 0 C1.65 0 3.3 0 5 0 C5 1.65 5 3.3 5 5 C3.35 5 1.7 5 0 5 C0 3.35 0 1.7 0 0 Z " fill="#F5E4DB" transform="translate(44,53)"/>
<path d="M0 0 C1.65 0 3.3 0 5 0 C5 0.66 5 1.32 5 2 C5.66 2 6.32 2 7 2 C7 2.99 7 3.98 7 5 C5.35 5 3.7 5 2 5 C2 4.01 2 3.02 2 2 C1.34 2 0.68 2 0 2 C0 1.34 0 0.68 0 0 Z " fill="#A69D9C" transform="translate(64,26)"/>
<path d="M0 0 C2 2 2 2 2 5 C1.01 5 0.02 5 -1 5 C-1.33 6.32 -1.66 7.64 -2 9 C-2.33 6.69 -2.66 4.38 -3 2 C-2.01 2 -1.02 2 0 2 C0 1.34 0 0.68 0 0 Z " fill="#E6E5E5" transform="translate(25,31)"/>
<path d="M0 0 C0.33 0 0.66 0 1 0 C1 2.31 1 4.62 1 7 C0.01 7 -0.98 7 -2 7 C-2 5.35 -2 3.7 -2 2 C-1.34 2 -0.68 2 0 2 C0 1.34 0 0.68 0 0 Z " fill="#726260" transform="translate(68,51)"/>
<path d="M0 0 C0.66 0 1.32 0 2 0 C2 1.65 2 3.3 2 5 C1.01 5.33 0.02 5.66 -1 6 C-1.66 5.34 -2.32 4.68 -3 4 C-2.34 4 -1.68 4 -1 4 C-0.67 2.68 -0.34 1.36 0 0 Z " fill="#C2C0C0" transform="translate(28,46)"/>
</svg>
