<?xml version="1.0" encoding="UTF-8"?>
<svg version="1.1" xmlns="http://www.w3.org/2000/svg" width="96" height="96">
<path d="M0 0 C31.68 0 63.36 0 96 0 C96 31.68 96 63.36 96 96 C64.32 96 32.64 96 0 96 C0 64.32 0 32.64 0 0 Z " fill="#F0EBF6" transform="translate(0,0)"/>
<path d="M0 0 C4.29 0 8.58 0 13 0 C13 0.66 13 1.32 13 2 C13.66 2 14.32 2 15 2 C15 2.99 15 3.98 15 5 C15.66 5 16.32 5 17 5 C17 5.99 17 6.98 17 8 C17.66 8 18.32 8 19 8 C19 9.65 19 11.3 19 13 C19.66 13 20.32 13 21 13 C21 13.66 21 14.32 21 15 C21.66 15 22.32 15 23 15 C23 17.31 23 19.62 23 22 C23.66 22 24.32 22 25 22 C25.02715383 23.74991334 25.04646551 25.49994945 25.0625 27.25 C25.07410156 28.22453125 25.08570313 29.1990625 25.09765625 30.203125 C25.01195577 32.65758678 24.70706066 34.66168914 24 37 C24.66 37 25.32 37 26 37 C25.86149295 40.45866792 25.71295273 43.91683275 25.5625 47.375 C25.52318359 48.35984375 25.48386719 49.3446875 25.44335938 50.359375 C25.38051758 51.77089844 25.38051758 51.77089844 25.31640625 53.2109375 C25.27974854 54.08024902 25.24309082 54.94956055 25.20532227 55.84521484 C25 58 25 58 24 60 C24.66 60 25.32 60 26 60 C26 60.66 26 61.32 26 62 C20.39 62 14.78 62 9 62 C9.66 57.05 10.32 52.1 11 47 C11.66 47 12.32 47 13 47 C13 46.34 13 45.68 13 45 C13.99 45 14.98 45 16 45 C16 44.01 16 43.02 16 42 C16.66 42 17.32 42 18 42 C18 43.65 18 45.3 18 47 C18.99 47 19.98 47 21 47 C21 45.35 21 43.7 21 42 C20.34 42 19.68 42 19 42 C19 41.34 19 40.68 19 40 C18.01 40 17.02 40 16 40 C16 38.68 16 37.36 16 36 C15.01 35.505 15.01 35.505 14 35 C14 34.01 14 33.02 14 32 C13.34 32 12.68 32 12 32 C12 31.34 12 30.68 12 30 C10.35 30 8.7 30 7 30 C7 30.66 7 31.32 7 32 C6.34 32 5.68 32 5 32 C5 31.34 5 30.68 5 30 C4.34 30 3.68 30 3 30 C3 30.66 3 31.32 3 32 C2.01 32 1.02 32 0 32 C0 31.34 0 30.68 0 30 C0.66 30 1.32 30 2 30 C2.33 29.01 2.66 28.02 3 27 C5.31 27 7.62 27 10 27 C10 26.34 10 25.68 10 25 C7.69 25 5.38 25 3 25 C3 24.01 3 23.02 3 22 C5.64 22 8.28 22 11 22 C11 21.34 11 20.68 11 20 C10.34 20 9.68 20 9 20 C9 19.01 9 18.02 9 17 C8.01 17 7.02 17 6 17 C6 16.34 6 15.68 6 15 C4.35 15 2.7 15 1 15 C1 15.66 1 16.32 1 17 C0.34 17 -0.32 17 -1 17 C-1 18.65 -1 20.3 -1 22 C-1.99 22 -2.98 22 -4 22 C-4 22.99 -4 23.98 -4 25 C-4.99 25 -5.98 25 -7 25 C-7 25.66 -7 26.32 -7 27 C-6.34 27 -5.68 27 -5 27 C-5 28.32 -5 29.64 -5 31 C-6.65 30.67 -8.3 30.34 -10 30 C-10.33 34.95 -10.66 39.9 -11 45 C-10.34 45 -9.68 45 -9 45 C-9 45.66 -9 46.32 -9 47 C-8.34 47 -7.68 47 -7 47 C-7 47.99 -7 48.98 -7 50 C-5.35 50 -3.7 50 -2 50 C-2 50.66 -2 51.32 -2 52 C-2.99 52 -3.98 52 -5 52 C-5 55.3 -5 58.6 -5 62 C-10.94 62 -16.88 62 -23 62 C-22.01 52.1 -21.02 42.2 -20 32 C-19.01 32 -18.02 32 -17 32 C-16.67 26.39 -16.34 20.78 -16 15 C-15.01 15 -14.02 15 -13 15 C-13 13.35 -13 11.7 -13 10 C-12.01 10 -11.02 10 -10 10 C-10 9.01 -10 8.02 -10 7 C-9.01 7 -8.02 7 -7 7 C-7 6.34 -7 5.68 -7 5 C-6.34 5 -5.68 5 -5 5 C-5 4.01 -5 3.02 -5 2 C-3.35 2 -1.7 2 0 2 C0 1.34 0 0.68 0 0 Z " fill="#836543" transform="translate(43,17)"/>
<path d="M0 0 C0.99 0 1.98 0 3 0 C3 0.66 3 1.32 3 2 C3.66 2 4.32 2 5 2 C5 2.99 5 3.98 5 5 C5.66 5 6.32 5 7 5 C7 5.99 7 6.98 7 8 C7.66 8 8.32 8 9 8 C9 9.65 9 11.3 9 13 C9.66 13 10.32 13 11 13 C11 13.66 11 14.32 11 15 C11.66 15 12.32 15 13 15 C13 17.31 13 19.62 13 22 C13.66 22 14.32 22 15 22 C15.02715383 23.74991334 15.04646551 25.49994945 15.0625 27.25 C15.07410156 28.22453125 15.08570312 29.1990625 15.09765625 30.203125 C15.01195577 32.65758678 14.70706066 34.66168914 14 37 C14.66 37 15.32 37 16 37 C15.86149295 40.45866792 15.71295273 43.91683275 15.5625 47.375 C15.52318359 48.35984375 15.48386719 49.3446875 15.44335938 50.359375 C15.40146484 51.30039063 15.35957031 52.24140625 15.31640625 53.2109375 C15.27974854 54.08024902 15.24309082 54.94956055 15.20532227 55.84521484 C15 58 15 58 14 60 C14.66 60 15.32 60 16 60 C16 60.66 16 61.32 16 62 C10.39 62 4.78 62 -1 62 C-0.34 57.05 0.32 52.1 1 47 C1.66 47 2.32 47 3 47 C3 46.34 3 45.68 3 45 C3.99 45 4.98 45 6 45 C6 44.01 6 43.02 6 42 C6.66 42 7.32 42 8 42 C8 43.65 8 45.3 8 47 C8.99 47 9.98 47 11 47 C11 45.35 11 43.7 11 42 C10.34 42 9.68 42 9 42 C9 41.34 9 40.68 9 40 C8.01 40 7.02 40 6 40 C6 38.68 6 37.36 6 36 C5.34 35.67 4.68 35.34 4 35 C4 34.01 4 33.02 4 32 C3.34 32 2.68 32 2 32 C2 31.34 2 30.68 2 30 C0.35 30 -1.3 30 -3 30 C-3 30.66 -3 31.32 -3 32 C-3.66 32 -4.32 32 -5 32 C-5 31.34 -5 30.68 -5 30 C-5.66 30 -6.32 30 -7 30 C-7 30.66 -7 31.32 -7 32 C-7.99 32 -8.98 32 -10 32 C-10 31.34 -10 30.68 -10 30 C-9.34 30 -8.68 30 -8 30 C-7.67 29.01 -7.34 28.02 -7 27 C-4.69 27 -2.38 27 0 27 C0 26.34 0 25.68 0 25 C-2.31 25 -4.62 25 -7 25 C-7 24.01 -7 23.02 -7 22 C-4.36 22 -1.72 22 1 22 C1 21.34 1 20.68 1 20 C0.34 20 -0.32 20 -1 20 C-1 19.01 -1 18.02 -1 17 C-1.99 17 -2.98 17 -4 17 C-4 16.34 -4 15.68 -4 15 C-5.32 15 -6.64 15 -8 15 C-8 14.01 -8 13.02 -8 12 C-7.34 12 -6.68 12 -6 12 C-6 11.34 -6 10.68 -6 10 C-5.01 10 -4.02 10 -3 10 C-3 7.69 -3 5.38 -3 3 C-2.01 2.67 -1.02 2.34 0 2 C0 1.34 0 0.68 0 0 Z " fill="#9A7C60" transform="translate(53,17)"/>
<path d="M0 0 C1.65 0 3.3 0 5 0 C5 0.66 5 1.32 5 2 C5.99 2 6.98 2 8 2 C8 2.99 8 3.98 8 5 C8.66 5 9.32 5 10 5 C10 5.66 10 6.32 10 7 C7.36 7 4.72 7 2 7 C2 7.99 2 8.98 2 10 C4.31 10 6.62 10 9 10 C9 10.66 9 11.32 9 12 C7.865625 12.12375 6.73125 12.2475 5.5625 12.375 C3.7990625 12.684375 3.7990625 12.684375 2 13 C1.67 13.66 1.34 14.32 1 15 C0.34 15 -0.32 15 -1 15 C-1 15.66 -1 16.32 -1 17 C-0.01 17 0.98 17 2 17 C2 16.34 2 15.68 2 15 C2.66 15 3.32 15 4 15 C4 15.66 4 16.32 4 17 C4.66 17 5.32 17 6 17 C6 16.34 6 15.68 6 15 C7.65 15 9.3 15 11 15 C11 15.66 11 16.32 11 17 C11.66 17 12.32 17 13 17 C13 17.99 13 18.98 13 20 C13.99 20.33 14.98 20.66 16 21 C15.67 22.32 15.34 23.64 15 25 C15.99 25 16.98 25 18 25 C18 25.66 18 26.32 18 27 C18.66 27 19.32 27 20 27 C20 28.65 20 30.3 20 32 C19.01 32 18.02 32 17 32 C17 30.35 17 28.7 17 27 C16.34 27 15.68 27 15 27 C15 27.99 15 28.98 15 30 C14.01 30 13.02 30 12 30 C12 30.66 12 31.32 12 32 C11.34 32 10.68 32 10 32 C9.67 33.32 9.34 34.64 9 36 C8.34 35.67 7.68 35.34 7 35 C7 35.66 7 36.32 7 37 C6.01 37 5.02 37 4 37 C4 37.66 4 38.32 4 39 C1.69 39 -0.62 39 -3 39 C-3 37.68 -3 36.36 -3 35 C-4.65 35 -6.3 35 -8 35 C-8 34.01 -8 33.02 -8 32 C-8.66 32 -9.32 32 -10 32 C-10 31.34 -10 30.68 -10 30 C-10.66 30 -11.32 30 -12 30 C-12.18451025 19.44191344 -12.18451025 19.44191344 -11 15 C-9.35 15.33 -7.7 15.66 -6 16 C-6 14.68 -6 13.36 -6 12 C-6.66 12 -7.32 12 -8 12 C-8 11.34 -8 10.68 -8 10 C-7.01 10 -6.02 10 -5 10 C-5 9.01 -5 8.02 -5 7 C-4.01 7 -3.02 7 -2 7 C-2 5.35 -2 3.7 -2 2 C-1.34 2 -0.68 2 0 2 C0 1.34 0 0.68 0 0 Z " fill="#FDD6BD" transform="translate(44,32)"/>
<path d="M0 0 C5.94 0 11.88 0 18 0 C18 0.99 18 1.98 18 3 C18.66 3 19.32 3 20 3 C20 3.66 20 4.32 20 5 C20.66 5 21.32 5 22 5 C22 5.99 22 6.98 22 8 C22.66 8 23.32 8 24 8 C24 9.65 24 11.3 24 13 C24.66 13 25.32 13 26 13 C26 13.66 26 14.32 26 15 C26.66 15 27.32 15 28 15 C28 17.64 28 20.28 28 23 C28.66 23 29.32 23 30 23 C29.67 28.61 29.34 34.22 29 40 C28.01 40 27.02 40 26 40 C26.33 35.05 26.66 30.1 27 25 C26.34 25 25.68 25 25 25 C25 22.69 25 20.38 25 18 C24.34 18 23.68 18 23 18 C23 17.34 23 16.68 23 16 C22.34 16 21.68 16 21 16 C21 14.35 21 12.7 21 11 C20.34 11 19.68 11 19 11 C19 10.01 19 9.02 19 8 C18.34 8 17.68 8 17 8 C17 7.01 17 6.02 17 5 C16.34 5 15.68 5 15 5 C15 4.34 15 3.68 15 3 C10.71 3 6.42 3 2 3 C2 3.66 2 4.32 2 5 C0.35 5 -1.3 5 -3 5 C-3 5.99 -3 6.98 -3 8 C-3.66 8 -4.32 8 -5 8 C-5 8.66 -5 9.32 -5 10 C-5.99 10 -6.98 10 -8 10 C-8 10.99 -8 11.98 -8 13 C-8.99 13 -9.98 13 -11 13 C-11 14.65 -11 16.3 -11 18 C-11.99 18 -12.98 18 -14 18 C-13.98839844 18.64066406 -13.97679687 19.28132813 -13.96484375 19.94140625 C-13.91116881 25.08653222 -14.11830422 29.93024924 -15 35 C-15.99 35 -16.98 35 -18 35 C-18 35.66 -18 36.32 -18 37 C-19.485 37.495 -19.485 37.495 -21 38 C-20.625 35.5625 -20.625 35.5625 -20 33 C-19.01 32.505 -19.01 32.505 -18 32 C-17.56711339 29.08883062 -17.56711339 29.08883062 -17.4375 25.6875 C-17.04253582 18.48947941 -17.04253582 18.48947941 -16 15 C-15.01 15 -14.02 15 -13 15 C-13 13.35 -13 11.7 -13 10 C-12.01 10 -11.02 10 -10 10 C-10 9.34 -10 8.68 -10 8 C-9.34 8 -8.68 8 -8 8 C-8 7.01 -8 6.02 -8 5 C-7.01 5 -6.02 5 -5 5 C-5 4.34 -5 3.68 -5 3 C-3.35 3 -1.7 3 0 3 C0 2.01 0 1.02 0 0 Z " fill="#F9F7F7" transform="translate(41,14)"/>
<path d="M0 0 C0.66 0 1.32 0 2 0 C2 0.99 2 1.98 2 3 C3.65 3 5.3 3 7 3 C7 3.66 7 4.32 7 5 C6.01 5 5.02 5 4 5 C4 8.3 4 11.6 4 15 C-0.29 15 -4.58 15 -9 15 C-8.67 11.7 -8.34 8.4 -8 5 C-7.01 5 -6.02 5 -5 5 C-5 4.34 -5 3.68 -5 3 C-3.35 3 -1.7 3 0 3 C0 2.01 0 1.02 0 0 Z " fill="#5D473C" transform="translate(34,64)"/>
<path d="M0 0 C0.99 0 1.98 0 3 0 C3.33 3.3 3.66 6.6 4 10 C3.01 10 2.02 10 1 10 C1 11.65 1 13.3 1 15 C2.65 15 4.3 15 6 15 C6 15.66 6 16.32 6 17 C7.65 17 9.3 17 11 17 C11 17.99 11 18.98 11 20 C8.36 20 5.72 20 3 20 C3 21.65 3 23.3 3 25 C2.01 25 1.02 25 0 25 C0 24.01 0 23.02 0 22 C-0.66 22 -1.32 22 -2 22 C-2 21.34 -2 20.68 -2 20 C-2.66 20 -3.32 20 -4 20 C-4.18451025 9.44191344 -4.18451025 9.44191344 -3 5 C-1.35 5.33 0.3 5.66 2 6 C2 4.68 2 3.36 2 2 C1.34 2 0.68 2 0 2 C0 1.34 0 0.68 0 0 Z " fill="#FCC7A1" transform="translate(36,42)"/>
<path d="M0 0 C1.65 0 3.3 0 5 0 C5 0.66 5 1.32 5 2 C5.99 2 6.98 2 8 2 C8 2.99 8 3.98 8 5 C8.66 5 9.32 5 10 5 C10 5.66 10 6.32 10 7 C7.36 7 4.72 7 2 7 C2 7.99 2 8.98 2 10 C4.31 10 6.62 10 9 10 C9 10.66 9 11.32 9 12 C7.865625 12.12375 6.73125 12.2475 5.5625 12.375 C3.7990625 12.684375 3.7990625 12.684375 2 13 C1.67 13.66 1.34 14.32 1 15 C-0.32 15 -1.64 15 -3 15 C-3.33 16.32 -3.66 17.64 -4 19 C-5.3271261 15.0186217 -5.06915913 11.14954773 -5 7 C-4.01 7 -3.02 7 -2 7 C-2 5.35 -2 3.7 -2 2 C-1.34 2 -0.68 2 0 2 C0 1.34 0 0.68 0 0 Z " fill="#FBC7A1" transform="translate(44,32)"/>
<path d="M0 0 C0.33 0 0.66 0 1 0 C1 1.98 1 3.96 1 6 C1.66 6 2.32 6 3 6 C3 8.64 3 11.28 3 14 C-3.6 14 -10.2 14 -17 14 C-17 13.01 -17 12.02 -17 11 C-11.39 11 -5.78 11 0 11 C0 10.34 0 9.68 0 9 C-0.66 9 -1.32 9 -2 9 C-1.125 1.125 -1.125 1.125 0 0 Z " fill="#F9F8F8" transform="translate(69,68)"/>
<path d="M0 0 C0.66 0 1.32 0 2 0 C2 0.99 2 1.98 2 3 C3.65 3 5.3 3 7 3 C6.67 6.96 6.34 10.92 6 15 C3.36 15 0.72 15 -2 15 C-1.34 10.05 -0.68 5.1 0 0 Z " fill="#7C5E43" transform="translate(54,64)"/>
<path d="M0 0 C0.66 0 1.32 0 2 0 C2 3.63 2 7.26 2 11 C1.01 11.33 0.02 11.66 -1 12 C-1 10.35 -1 8.7 -1 7 C-4.3 7 -7.6 7 -11 7 C-11 8.65 -11 10.3 -11 12 C-11.66 12 -12.32 12 -13 12 C-13 8.7 -13 5.4 -13 2 C-12.01 2 -11.02 2 -10 2 C-10 2.66 -10 3.32 -10 4 C-7.69 4 -5.38 4 -3 4 C-3 3.34 -3 2.68 -3 2 C-2.01 2 -1.02 2 0 2 C0 1.34 0 0.68 0 0 Z " fill="#F9F5F2" transform="translate(51,67)"/>
<path d="M0 0 C0.66 0 1.32 0 2 0 C2 1.65 2 3.3 2 5 C2.66 5 3.32 5 4 5 C4.02703381 6.93742341 4.04641125 8.87495479 4.0625 10.8125 C4.07410156 11.89144531 4.08570313 12.97039062 4.09765625 14.08203125 C4 17 4 17 3 20 C2.34 20 1.68 20 1 20 C1 16.37 1 12.74 1 9 C-0.32 8.67 -1.64 8.34 -3 8 C-3 6.35 -3 4.7 -3 3 C-2.01 3 -1.02 3 0 3 C0 2.01 0 1.02 0 0 Z " fill="#A38249" transform="translate(59,59)"/>
<path d="M0 0 C1.32 0 2.64 0 4 0 C4.18451025 11.52164009 4.18451025 11.52164009 3 17 C3.66 17 4.32 17 5 17 C5 17.99 5 18.98 5 20 C5.66 20 6.32 20 7 20 C7 20.66 7 21.32 7 22 C4.69 22 2.38 22 0 22 C0.14165893 19.60385425 0.28818841 17.20817103 0.4375 14.8125 C0.47681641 14.13896484 0.51613281 13.46542969 0.55664062 12.77148438 C0.78927565 9.10300898 1.17207011 5.58305794 2 2 C1.34 2 0.68 2 0 2 C0 1.34 0 0.68 0 0 Z " fill="#916E4F" transform="translate(62,57)"/>
<path d="M0 0 C0.33 0 0.66 0 1 0 C1 2.31 1 4.62 1 7 C6.94 7 12.88 7 19 7 C18.67 7.66 18.34 8.32 18 9 C11.73 9 5.46 9 -1 9 C-1 1 -1 1 0 0 Z " fill="#FDFDFD" transform="translate(19,72)"/>
<path d="M0 0 C-0.33 3.3 -0.66 6.6 -1 10 C-2.65 10 -4.3 10 -6 10 C-5.67 7.03 -5.34 4.06 -5 1 C-2 0 -2 0 0 0 Z " fill="#694D34" transform="translate(31,68)"/>
<path d="M0 0 C1.65 0 3.3 0 5 0 C5 0.66 5 1.32 5 2 C5.66 2 6.32 2 7 2 C7 3.65 7 5.3 7 7 C6.01 7 5.02 7 4 7 C4 5.35 4 3.7 4 2 C3.34 2 2.68 2 2 2 C2 2.99 2 3.98 2 5 C1.01 5 0.02 5 -1 5 C-1 5.66 -1 6.32 -1 7 C-1.66 7 -2.32 7 -3 7 C-3 5.35 -3 3.7 -3 2 C-2.01 2 -1.02 2 0 2 C0 1.34 0 0.68 0 0 Z " fill="#EDCA50" transform="translate(57,57)"/>
<path d="M0 0 C0.99 0.33 1.98 0.66 3 1 C2.67 6.61 2.34 12.22 2 18 C1.01 17.67 0.02 17.34 -1 17 C-0.67 11.39 -0.34 5.78 0 0 Z " fill="#997A5D" transform="translate(66,57)"/>
<path d="M0 0 C0.66 0 1.32 0 2 0 C2 0.66 2 1.32 2 2 C2.66 2 3.32 2 4 2 C4 3.32 4 4.64 4 6 C2.35 5.67 0.7 5.34 -1 5 C-1 5.66 -1 6.32 -1 7 C-1.99 7 -2.98 7 -4 7 C-4 7.99 -4 8.98 -4 10 C-4.66 10 -5.32 10 -6 10 C-6 8.35 -6 6.7 -6 5 C-5.01 5 -4.02 5 -3 5 C-3 4.01 -3 3.02 -3 2 C-2.01 2 -1.02 2 0 2 C0 1.34 0 0.68 0 0 Z " fill="#4E403A" transform="translate(34,42)"/>
<path d="M0 0 C0.99 0 1.98 0 3 0 C3.33 3.3 3.66 6.6 4 10 C3.01 10 2.02 10 1 10 C1 10.66 1 11.32 1 12 C0.34 12 -0.32 12 -1 12 C-1 9.69 -1 7.38 -1 5 C-0.01 5.33 0.98 5.66 2 6 C2 4.68 2 3.36 2 2 C1.34 2 0.68 2 0 2 C0 1.34 0 0.68 0 0 Z " fill="#D49A76" transform="translate(36,42)"/>
<path d="M0 0 C2.31 0 4.62 0 7 0 C7 0.99 7 1.98 7 3 C6.01 3 5.02 3 4 3 C4 3.66 4 4.32 4 5 C3.34 5 2.68 5 2 5 C2 4.34 2 3.68 2 3 C1.34 3 0.68 3 0 3 C0 3.66 0 4.32 0 5 C-0.99 5 -1.98 5 -3 5 C-3 4.34 -3 3.68 -3 3 C-2.34 3 -1.68 3 -1 3 C-0.67 2.01 -0.34 1.02 0 0 Z " fill="#4D4846" transform="translate(46,44)"/>
<path d="M0 0 C2.64 0 5.28 0 8 0 C8 0.99 8 1.98 8 3 C8.66 3 9.32 3 10 3 C10 3.66 10 4.32 10 5 C9.01 5 8.02 5 7 5 C7 4.34 7 3.68 7 3 C4.69 3 2.38 3 0 3 C0 2.01 0 1.02 0 0 Z " fill="#796250" transform="translate(46,39)"/>
<path d="M0 0 C0.66 0.33 1.32 0.66 2 1 C1.67 2.98 1.34 4.96 1 7 C1.66 7 2.32 7 3 7 C3 7.66 3 8.32 3 9 C1.02 9 -0.96 9 -3 9 C-3 7.68 -3 6.36 -3 5 C-2.34 4.67 -1.68 4.34 -1 4 C-0.34786708 1.97536745 -0.34786708 1.97536745 0 0 Z " fill="#FEF1E7" transform="translate(41,47)"/>
<path d="M0 0 C0.99 0 1.98 0 3 0 C3 0.66 3 1.32 3 2 C3.66 2 4.32 2 5 2 C5 2.99 5 3.98 5 5 C5.66 5 6.32 5 7 5 C7 5.99 7 6.98 7 8 C6.01 8 5.02 8 4 8 C4 7.01 4 6.02 4 5 C3.34 5 2.68 5 2 5 C2 4.34 2 3.68 2 3 C1.34 3 0.68 3 0 3 C0 2.01 0 1.02 0 0 Z " fill="#CF8F67" transform="translate(32,59)"/>
<path d="M0 0 C2.64 0 5.28 0 8 0 C8 0.99 8 1.98 8 3 C5.36 3 2.72 3 0 3 C0 2.01 0 1.02 0 0 Z " fill="#EA836A" transform="translate(39,59)"/>
<path d="M0 0 C0.99 0 1.98 0 3 0 C2.67 3.3 2.34 6.6 2 10 C1.34 10 0.68 10 0 10 C0 6.7 0 3.4 0 0 Z " fill="#C47F49" transform="translate(30,49)"/>
<path d="M0 0 C1.65 0 3.3 0 5 0 C4.67 1.32 4.34 2.64 4 4 C3.34 3.67 2.68 3.34 2 3 C2 3.66 2 4.32 2 5 C1.01 5 0.02 5 -1 5 C-0.67 3.35 -0.34 1.7 0 0 Z " fill="#DFA782" transform="translate(49,64)"/>
<path d="M0 0 C0.99 0 1.98 0 3 0 C3 2.31 3 4.62 3 7 C2.01 6.67 1.02 6.34 0 6 C0 4.02 0 2.04 0 0 Z " fill="#A3886E" transform="translate(65,68)"/>
<path d="M0 0 C0.99 0 1.98 0 3 0 C3 0.99 3 1.98 3 3 C3.66 3 4.32 3 5 3 C5 4.65 5 6.3 5 8 C4.67 7.01 4.34 6.02 4 5 C3.34 5 2.68 5 2 5 C2 4.34 2 3.68 2 3 C1.34 3 0.68 3 0 3 C0 2.01 0 1.02 0 0 Z " fill="#D59C78" transform="translate(53,44)"/>
</svg>
