<?xml version="1.0" standalone="no"?><!DOCTYPE svg PUBLIC "-//W3C//DTD SVG 1.1//EN" "http://www.w3.org/Graphics/SVG/1.1/DTD/svg11.dtd"><svg t="1755942027053" class="icon" viewBox="0 0 1024 1024" version="1.1" xmlns="http://www.w3.org/2000/svg" p-id="17271" xmlns:xlink="http://www.w3.org/1999/xlink" width="200" height="200"><path d="M725.333333 170.666667h85.333334c4.266667 0 6.4 2.133333 10.666666 4.266666 2.133333 2.133333 4.266667 6.4 4.266667 10.666667v654.933333c0 4.266667-2.133333 6.4-4.266667 10.666667-2.133333 2.133333-6.4 4.266667-10.666666 4.266667h-85.333334c-4.266667 0-6.4-2.133333-10.666666-4.266667-2.133333-2.133333-4.266667-6.4-4.266667-10.666667v-654.933333c0-4.266667 2.133333-6.4 4.266667-10.666667 4.266667-2.133333 6.4-4.266667 10.666666-4.266666z m-170.666666 228.266666h85.333333c4.266667 0 6.4 2.133333 10.666667 4.266667 2.133333 2.133333 4.266667 6.4 4.266666 10.666667v426.666666c0 4.266667-2.133333 6.4-4.266666 10.666667-2.133333 2.133333-6.4 4.266667-10.666667 4.266667h-85.333333c-4.266667 0-6.4-2.133333-10.666667-4.266667s-4.266667-6.4-4.266667-10.666667v-426.666666c0-4.266667 2.133333-6.4 4.266667-10.666667 4.266667-4.266667 6.4-4.266667 10.666667-4.266667z m-170.666667 170.666667h85.333333c4.266667 0 6.4 2.133333 10.666667 4.266667 2.133333 2.133333 4.266667 6.4 4.266667 10.666666v256c0 4.266667-2.133333 6.4-4.266667 10.666667-2.133333 2.133333-6.4 4.266667-10.666667 4.266667h-85.333333c-4.266667 0-6.4-2.133333-10.666667-4.266667s-4.266667-6.4-4.266666-10.666667v-256c0-4.266667 2.133333-6.4 4.266666-10.666666 4.266667-4.266667 6.4-4.266667 10.666667-4.266667z m-170.666667 113.066667h85.333334c4.266667 0 6.4 2.133333 10.666666 4.266666s4.266667 6.4 4.266667 10.666667v142.933333c0 4.266667-2.133333 6.4-4.266667 10.666667s-6.4 4.266667-10.666666 4.266667h-85.333334c-4.266667 0-6.4-2.133333-10.666666-4.266667s-4.266667-6.4-4.266667-10.666667v-142.933333c0-4.266667 2.133333-6.4 4.266667-10.666667s6.4-4.266667 10.666666-4.266666z" p-id="17272"></path></svg>