<?xml version="1.0" standalone="no"?><!DOCTYPE svg PUBLIC "-//W3C//DTD SVG 1.1//EN" "http://www.w3.org/Graphics/SVG/1.1/DTD/svg11.dtd"><svg t="1756006988060" class="icon" viewBox="0 0 1024 1024" version="1.1" xmlns="http://www.w3.org/2000/svg" p-id="18368" xmlns:xlink="http://www.w3.org/1999/xlink" width="200" height="200"><path d="M277.333333 533.333333q0 4.181333-0.426666 8.362667t-1.194667 8.277333q-0.853333 4.138667-2.048 8.106667-1.237333 4.053333-2.816 7.893333-1.621333 3.882667-3.584 7.594667-1.962667 3.669333-4.309333 7.168-2.346667 3.498667-4.992 6.741333-2.645333 3.242667-5.632 6.186667-2.986667 2.986667-6.186667 5.632-3.242667 2.645333-6.741333 4.992-3.498667 2.346667-7.168 4.266667-3.712 2.005333-7.594667 3.626666-3.84 1.578667-7.850667 2.816-4.010667 1.194667-8.106666 2.048-4.138667 0.810667-8.32 1.194667-4.181333 0.426667-8.362667 0.426667t-8.362667-0.426667q-4.181333-0.426667-8.277333-1.194667-4.138667-0.853333-8.106667-2.048-4.053333-1.237333-7.893333-2.816-3.882667-1.621333-7.594667-3.584-3.669333-1.962667-7.168-4.309333-3.498667-2.346667-6.741333-4.992-3.242667-2.645333-6.186667-5.632-2.986667-2.986667-5.632-6.186667-2.645333-3.242667-4.992-6.741333-2.346667-3.498667-4.266666-7.168-2.005333-3.712-3.626667-7.594667-1.578667-3.84-2.816-7.850666-1.194667-4.010667-2.048-8.106667-0.810667-4.138667-1.194667-8.32-0.426667-4.181333-0.426666-8.362667t0.426666-8.362666q0.426667-4.181333 1.194667-8.277334 0.853333-4.138667 2.048-8.106666 1.237333-4.053333 2.816-7.893334 1.621333-3.882667 3.584-7.594666 1.962667-3.669333 4.309333-7.168 2.346667-3.498667 4.992-6.741334 2.645333-3.242667 5.632-6.186666 2.986667-2.986667 6.186667-5.632 3.242667-2.645333 6.741333-4.992 3.498667-2.346667 7.168-4.266667 3.712-2.005333 7.594667-3.626667 3.84-1.578667 7.850667-2.816 4.010667-1.194667 8.106666-2.048 4.138667-0.810667 8.32-1.194666 4.181333-0.426667 8.362667-0.426667t8.362667 0.426667q4.181333 0.426667 8.277333 1.194666 4.138667 0.853333 8.106667 2.048 4.053333 1.237333 7.893333 2.816 3.882667 1.621333 7.594667 3.584 3.669333 1.962667 7.168 4.309334 3.498667 2.346667 6.741333 4.992 3.242667 2.645333 6.186667 5.632 2.986667 2.986667 5.632 6.186666 2.645333 3.242667 4.992 6.741334 2.346667 3.498667 4.266666 7.168 2.005333 3.712 3.626667 7.594666 1.578667 3.84 2.816 7.850667 1.194667 4.010667 2.048 8.106667 0.810667 4.138667 1.194667 8.32 0.426667 4.181333 0.426666 8.362666z m618.666667 0q0 4.181333-0.426667 8.362667t-1.194666 8.277333q-0.853333 4.138667-2.048 8.106667-1.237333 4.053333-2.816 7.893333-1.621333 3.882667-3.584 7.594667-1.962667 3.669333-4.309334 7.168-2.346667 3.498667-4.992 6.741333-2.645333 3.242667-5.632 6.186667-2.986667 2.986667-6.186666 5.632-3.242667 2.645333-6.741334 4.992-3.498667 2.346667-7.168 4.266667-3.712 2.005333-7.594666 3.626666-3.84 1.578667-7.850667 2.816-4.053333 1.194667-8.106667 2.048-4.138667 0.810667-8.32 1.194667-4.181333 0.426667-8.362666 0.426667t-8.362667-0.426667q-4.181333-0.426667-8.277333-1.194667-4.096-0.853333-8.106667-2.048-4.053333-1.237333-7.893333-2.816-3.882667-1.621333-7.594667-3.584-3.669333-1.962667-7.168-4.309333-3.498667-2.346667-6.741333-4.992-3.242667-2.645333-6.186667-5.632-2.986667-2.986667-5.632-6.186667-2.645333-3.242667-4.992-6.741333-2.346667-3.498667-4.266667-7.168-2.005333-3.712-3.626666-7.594667-1.578667-3.84-2.816-7.850666-1.194667-4.010667-2.048-8.106667-0.810667-4.138667-1.194667-8.32-0.426667-4.181333-0.426667-8.362667t0.426667-8.362666q0.426667-4.181333 1.194667-8.277334 0.853333-4.138667 2.048-8.106666 1.237333-4.053333 2.816-7.893334 1.621333-3.882667 3.584-7.594666 1.962667-3.669333 4.309333-7.168 2.346667-3.498667 4.992-6.741334 2.645333-3.242667 5.632-6.186666 2.986667-2.986667 6.186667-5.632 3.242667-2.645333 6.741333-4.992 3.498667-2.346667 7.168-4.266667 3.712-2.005333 7.594667-3.626667 3.84-1.578667 7.850666-2.816 4.053333-1.194667 8.106667-2.048 4.138667-0.810667 8.32-1.194666 4.181333-0.426667 8.362667-0.426667t8.362666 0.426667q4.181333 0.426667 8.277334 1.194666 4.096 0.853333 8.106666 2.048 4.053333 1.237333 7.893334 2.816 3.882667 1.621333 7.594666 3.584 3.669333 1.962667 7.168 4.309334 3.498667 2.346667 6.741334 4.992 3.242667 2.645333 6.186666 5.632 2.986667 2.986667 5.632 6.186666 2.645333 3.242667 4.992 6.741334 2.346667 3.498667 4.266667 7.168 2.005333 3.712 3.626667 7.594666 1.578667 3.84 2.816 7.850667 1.194667 4.010667 2.048 8.106667 0.810667 4.138667 1.194666 8.32 0.426667 4.181333 0.426667 8.362666z m-256-10.666666q0 6.826667-0.682667 13.610666-0.64 6.741333-1.962666 13.44-1.365333 6.698667-3.328 13.226667-1.962667 6.485333-4.565334 12.8-2.645333 6.272-5.845333 12.288-3.2 5.973333-6.997333 11.690667-3.754667 5.632-8.106667 10.922666-4.309333 5.248-9.130667 10.069334-4.821333 4.821333-10.069333 9.130666-5.290667 4.352-10.922667 8.106667-5.674667 3.797333-11.690666 6.997333-5.973333 3.242667-12.288 5.845334-6.314667 2.56-12.8 4.565333-6.528 1.962667-13.226667 3.328-6.698667 1.28-13.44 1.962667-6.826667 0.682667-13.610667 0.682666-6.826667 0-13.610666-0.682666-6.741333-0.64-13.44-1.962667-6.698667-1.365333-13.226667-3.328-6.485333-1.962667-12.8-4.565333-6.272-2.602667-12.288-5.845334-5.973333-3.2-11.690667-6.997333-5.632-3.754667-10.922666-8.106667-5.248-4.309333-10.069334-9.130666-4.821333-4.821333-9.130666-10.069334-4.352-5.290667-8.106667-10.922666-3.797333-5.674667-6.997333-11.690667-3.242667-5.973333-5.845334-12.288-2.56-6.314667-4.565333-12.8-1.962667-6.528-3.328-13.226667-1.28-6.698667-1.962667-13.44-0.682667-6.826667-0.682666-13.610666 0-6.826667 0.682666-13.610667 0.64-6.741333 1.962667-13.44 1.365333-6.698667 3.328-13.226667 1.962667-6.485333 4.565333-12.8 2.602667-6.272 5.845334-12.288 3.2-5.973333 6.997333-11.690666 3.754667-5.632 8.106667-10.922667 4.309333-5.248 9.130666-10.069333 4.821333-4.821333 10.069334-9.130667 5.290667-4.352 10.922666-8.106667 5.674667-3.797333 11.690667-6.997333 5.973333-3.242667 12.288-5.845333 6.314667-2.56 12.8-4.565334 6.528-1.962667 13.226667-3.328 6.698667-1.28 13.44-1.962666 6.826667-0.682667 13.610666-0.682667 6.826667 0 13.610667 0.682667 6.741333 0.64 13.44 1.962666 6.698667 1.365333 13.226667 3.328 6.485333 1.962667 12.8 4.565334 6.272 2.602667 12.288 5.845333 5.973333 3.2 11.690666 6.997333 5.632 3.754667 10.922667 8.106667 5.248 4.309333 10.069333 9.130667 4.821333 4.821333 9.130667 10.069333 4.352 5.290667 8.106667 10.922667 3.797333 5.674667 6.997333 11.690666 3.2 5.973333 5.845333 12.288 2.56 6.314667 4.565334 12.8 1.962667 6.528 3.328 13.226667 1.28 6.698667 1.962666 13.44 0.682667 6.826667 0.682667 13.610667z" p-id="18369"></path></svg>