<?xml version="1.0" standalone="no"?><!DOCTYPE svg PUBLIC "-//W3C//DTD SVG 1.1//EN" "http://www.w3.org/Graphics/SVG/1.1/DTD/svg11.dtd"><svg t="1756006959240" class="icon" viewBox="0 0 1024 1024" version="1.1" xmlns="http://www.w3.org/2000/svg" p-id="18140" xmlns:xlink="http://www.w3.org/1999/xlink" width="200" height="200"><path d="M522.368 170.666667c189.909333 0 352.298667 162.389333 352.298667 352.298666 0 210.645333-162.389333 373.034667-352.298667 373.034667C311.722667 896 149.333333 733.610667 149.333333 522.965333 149.333333 333.056 311.722667 170.666667 522.368 170.666667z m-0.085333 85.333333C358.826667 256 234.666667 380.16 234.666667 543.573333c0 142.933333 124.16 267.093333 287.573333 267.093334 142.933333 0 267.093333-124.16 267.093333-267.093334C789.333333 380.16 665.173333 256 522.24 256zM512 405.333333a128 128 0 1 1 0 256 128 128 0 0 1 0-256z" p-id="18141" fill="#181919"></path></svg>